# xmcd CD database file
#
# Track frame offsets:
#	150
#	13360
#	27013
#	38559
#	58805
#	77356
#	90957
#	107446
#	119773
#	133535
#	147553
#	164396
#	180087
#
# Disc length: 2593 seconds
#
# Revision: 0
# Processed by: cddbd v1.5.1PL0 Copyright (c) Steve Scherf et al.
# Submitted via: CDex 1.51
#
DISCID=9d0a1f0d
DTITLE=Helt Oncale - Day To Day
DYEAR=1996
DGENRE=Country
TTITLE0=Get Up And Go
TTITLE1=Red Neckin'
TTITLE2=Dirty Feet
TTITLE3=For The Love Of A Woman
TTITLE4=Back Home To Memphis
TTITLE5=Day To Day
TTITLE6=Another Dream Walks Away
TTITLE7=Alligator Sam
TTITLE8=Long Gone
TTITLE9=Country Music Lives Forever
TTITLE10=Remember The Days
TTITLE11=Black Lace
TTITLE12=Side By Side
EXTD=YEAR: 1996
EXTT0=
EXTT1=
EXTT2=
EXTT3=
EXTT4=
EXTT5=
EXTT6=
EXTT7=
EXTT8=
EXTT9=
EXTT10=
EXTT11=
EXTT12=
PLAYORDER=
